ffmpeg started on 2026-01-20 at 14:01:20
Report written to "D:\Convert\FFMetrics\reports\ssim_report-6.txt"
Log level: 32
Command line:
ffmpeg -hide_banner -nostdin -r 24000/1001 -i "F:\\Convert\\files\\[DC] Make Heroine ga Oosugiru - 07_Telegram_HEVC(203).mkv" -r 24000/1001 -i "F:\\Convert\\files\\[DC] Make Heroine ga Oosugiru - 07_Telegram.mp4" -lavfi "[0:v]settb=AVTB,setpts=PTS-STARTPTS,format=pix_fmts=yuv420p10le,fps=24000/1001,scale=1920:1080:flags=lanczos:param0=3:out_range=limited:out_color_matrix=bt709:out_chroma_loc=left,setsar=1/1,setdar=(1920/1080)*(1/1),colorspace=format=yuv420p10:range=tv:primaries=bt709:trc=bt709:space=bt709:fast=0[main];[1:v]settb=AVTB,setpts=PTS-STARTPTS,format=pix_fmts=yuv420p,fps=24000/1001,scale=1920:1080:flags=lanczos:param0=3:out_range=limited:out_color_matrix=bt709:out_chroma_loc=left,setsar=1.000,setdar=1.778,colorspace=format=yuv420p:range=tv:primaries=bt709:trc=bt709:space=bt709:fast=0[ref];[main][ref]ssim=eof_action=endall:stats_file='D\\:/Convert/FFMetrics/logs/ssim_logfile-6.txt'" -f null -
Input #0, matroska,webm, from 'F:\Convert\files\[DC] Make Heroine ga Oosugiru - 07_Telegram_HEVC(203).mkv':
  Metadata:
    COMPATIBLE_BRANDS: isomiso2avc1mp41
    MAJOR_BRAND     : isom
    MINOR_VERSION   : 512
    ENCODER         : Lavf61.7.100
  Duration: 00:24:06.79, start: -0.021000, bitrate: 964 kb/s
  Stream #0:0: Video: hevc (Main 10), yuv420p10le(tv, bt709, progressive), 1920x1080 [SAR 1:1 DAR 16:9], 23.98 fps, 23.98 tbr, 1k tbn (default)
      Metadata:
        HANDLER_NAME    : VideoHandler
        VENDOR_ID       : [0][0][0][0]
        ENCODER         : Lavc61.19.100 libx265
        BPS             : 767794
        DURATION        : 00:24:06.569708333
        NUMBER_OF_FRAMES: 34683
        NUMBER_OF_BYTES : 138833544
        _STATISTICS_WRITING_APP: mkvpropedit v94.0 ('Initiate') 64-bit
        _STATISTICS_WRITING_DATE_UTC: 2026-01-20 07:21:14
        _STATISTICS_TAGS: BPS DURATION NUMBER_OF_FRAMES NUMBER_OF_BYTES
  Stream #0:1: Audio: aac (LC), 48000 Hz, stereo, fltp (default)
      Metadata:
        HANDLER_NAME    : SoundHandler
        VENDOR_ID       : [0][0][0][0]
        ENCODER         : Lavc61.19.100 aac
        BPS             : 193194
        DURATION        : 00:24:06.784000000
        NUMBER_OF_FRAMES: 67819
        NUMBER_OF_BYTES : 34938755
        _STATISTICS_WRITING_APP: mkvpropedit v94.0 ('Initiate') 64-bit
        _STATISTICS_WRITING_DATE_UTC: 2026-01-20 07:21:14
        _STATISTICS_TAGS: BPS DURATION NUMBER_OF_FRAMES NUMBER_OF_BYTES
Input #1, mov,mp4,m4a,3gp,3g2,mj2, from 'F:\Convert\files\[DC] Make Heroine ga Oosugiru - 07_Telegram.mp4':
  Metadata:
    major_brand     : isom
    minor_version   : 512
    compatible_brands: isomiso2avc1mp41
    encoder         : Lavf60.16.100
  Duration: 00:24:06.74, start: 0.000000, bitrate: 3764 kb/s
  Stream #1:0[0x1](und): Video: h264 (High) (avc1 / 0x31637661), yuv420p(tv, bt709, progressive), 1920x1080 [SAR 1:1 DAR 16:9], 3616 kb/s, 23.98 fps, 23.98 tbr, 24k tbn (default)
      Metadata:
        handler_name    : VideoHandler
        vendor_id       : [0][0][0][0]
        encoder         : Lavc60.31.102 h264_qsv
  Stream #1:1[0x2](und): Audio: aac (HE-AACv2) (mp4a / 0x6134706D), 48000 Hz, stereo, fltp, 144 kb/s (default)
      Metadata:
        handler_name    : SoundHandler
        vendor_id       : [0][0][0][0]
Stream mapping:
  Stream #0:0 (hevc) -> settb:default
  Stream #1:0 (h264) -> settb:default
  ssim:default -> Stream #0:0 (wrapped_avframe)
  Stream #0:1 -> #0:1 (aac (native) -> pcm_s16le (native))
Output #0, null, to 'pipe:':
  Metadata:
    COMPATIBLE_BRANDS: isomiso2avc1mp41
    MAJOR_BRAND     : isom
    MINOR_VERSION   : 512
    encoder         : Lavf61.7.100
  Stream #0:0: Video: wrapped_avframe, yuv420p10le(tv, bt709, progressive), 1920x1080 [SAR 1:1 DAR 16:9], q=2-31, 200 kb/s, 23.98 fps, 23.98 tbn
      Metadata:
        encoder         : Lavc61.19.100 wrapped_avframe
  Stream #0:1: Audio: pcm_s16le, 48000 Hz, stereo, s16, 1536 kb/s (default)
      Metadata:
        HANDLER_NAME    : SoundHandler
        VENDOR_ID       : [0][0][0][0]
        _STATISTICS_TAGS: BPS DURATION NUMBER_OF_FRAMES NUMBER_OF_BYTES
        BPS             : 193194
        DURATION        : 00:24:06.784000000
        NUMBER_OF_FRAMES: 67819
        NUMBER_OF_BYTES : 34938755
        _STATISTICS_WRITING_APP: mkvpropedit v94.0 ('Initiate') 64-bit
        _STATISTICS_WRITING_DATE_UTC: 2026-01-20 07:21:14
        encoder         : Lavc61.19.100 pcm_s16le
frame=  129 fps=0.0 q=-0.0 size=N/A time=00:00:05.38 bitrate=N/A speed=10.4x    frame=  307 fps=294 q=-0.0 size=N/A time=00:00:12.80 bitrate=N/A speed=12.3x    frame=  489 fps=315 q=-0.0 size=N/A time=00:00:20.39 bitrate=N/A speed=13.1x    frame=  672 fps=326 q=-0.0 size=N/A time=00:00:28.02 bitrate=N/A speed=13.6x    frame=  859 fps=332 q=-0.0 size=N/A time=00:00:35.82 bitrate=N/A speed=13.8x    frame=  993 fps=321 q=-0.0 size=N/A time=00:00:41.41 bitrate=N/A speed=13.4x    frame= 1155 fps=319 q=-0.0 size=N/A time=00:00:48.17 bitrate=N/A speed=13.3x    frame= 1310 fps=317 q=-0.0 size=N/A time=00:00:54.63 bitrate=N/A speed=13.2x    frame= 1474 fps=317 q=-0.0 size=N/A time=00:01:01.47 bitrate=N/A speed=13.2x    frame= 1612 fps=313 q=-0.0 size=N/A time=00:01:07.23 bitrate=N/A speed=  13x    frame= 1772 fps=312 q=-0.0 size=N/A time=00:01:13.90 bitrate=N/A speed=  13x    frame= 1924 fps=311 q=-0.0 size=N/A time=00:01:20.24 bitrate=N/A speed=  13x    frame= 2062 fps=307 q=-0.0 size=N/A time=00:01:26.00 bitrate=N/A speed=12.8x    frame= 2194 fps=303 q=-0.0 size=N/A time=00:01:31.50 bitrate=N/A speed=12.7x    frame= 2348 fps=303 q=-0.0 size=N/A time=00:01:37.93 bitrate=N/A speed=12.6x    frame= 2477 fps=300 q=-0.0 size=N/A time=00:01:43.31 bitrate=N/A speed=12.5x    frame= 2626 fps=299 q=-0.0 size=N/A time=00:01:49.52 bitrate=N/A speed=12.5x    frame= 2799 fps=301 q=-0.0 size=N/A time=00:01:56.74 bitrate=N/A speed=12.6x    frame= 2966 fps=303 q=-0.0 size=N/A time=00:02:03.70 bitrate=N/A speed=12.6x    frame= 3149 fps=305 q=-0.0 size=N/A time=00:02:11.33 bitrate=N/A speed=12.7x    frame= 3332 fps=307 q=-0.0 size=N/A time=00:02:18.97 bitrate=N/A speed=12.8x    frame= 3519 fps=310 q=-0.0 size=N/A time=00:02:26.77 bitrate=N/A speed=12.9x    frame= 3697 fps=312 q=-0.0 size=N/A time=00:02:34.19 bitrate=N/A speed=  13x    frame= 3885 fps=314 q=-0.0 size=N/A time=00:02:42.03 bitrate=N/A speed=13.1x    frame= 4067 fps=315 q=-0.0 size=N/A time=00:02:49.62 bitrate=N/A speed=13.2x    frame= 4254 fps=317 q=-0.0 size=N/A time=00:02:57.42 bitrate=N/A speed=13.2x    frame= 4435 fps=319 q=-0.0 size=N/A time=00:03:04.97 bitrate=N/A speed=13.3x    frame= 4626 fps=320 q=-0.0 size=N/A time=00:03:12.94 bitrate=N/A speed=13.4x    frame= 4807 fps=321 q=-0.0 size=N/A time=00:03:20.49 bitrate=N/A speed=13.4x    frame= 4989 fps=322 q=-0.0 size=N/A time=00:03:28.08 bitrate=N/A speed=13.4x    frame= 5173 fps=323 q=-0.0 size=N/A time=00:03:35.75 bitrate=N/A speed=13.5x    frame= 5361 fps=325 q=-0.0 size=N/A time=00:03:43.59 bitrate=N/A speed=13.5x    frame= 5542 fps=326 q=-0.0 size=N/A time=00:03:51.14 bitrate=N/A speed=13.6x    frame= 5729 fps=327 q=-0.0 size=N/A time=00:03:58.94 bitrate=N/A speed=13.6x    frame= 5915 fps=328 q=-0.0 size=N/A time=00:04:06.70 bitrate=N/A speed=13.7x    frame= 6088 fps=328 q=-0.0 size=N/A time=00:04:13.92 bitrate=N/A speed=13.7x    frame= 6279 fps=329 q=-0.0 size=N/A time=00:04:21.88 bitrate=N/A speed=13.7x    frame= 6461 fps=330 q=-0.0 size=N/A time=00:04:29.47 bitrate=N/A speed=13.7x    frame= 6639 fps=330 q=-0.0 size=N/A time=00:04:36.90 bitrate=N/A speed=13.8x    frame= 6820 fps=331 q=-0.0 size=N/A time=00:04:44.45 bitrate=N/A speed=13.8x    frame= 7007 fps=331 q=-0.0 size=N/A time=00:04:52.25 bitrate=N/A speed=13.8x    frame= 7187 fps=332 q=-0.0 size=N/A time=00:04:59.75 bitrate=N/A speed=13.8x    frame= 7368 fps=332 q=-0.0 size=N/A time=00:05:07.30 bitrate=N/A speed=13.9x    frame= 7543 fps=332 q=-0.0 size=N/A time=00:05:14.60 bitrate=N/A speed=13.9x    frame= 7723 fps=333 q=-0.0 size=N/A time=00:05:22.11 bitrate=N/A speed=13.9x    frame= 7902 fps=333 q=-0.0 size=N/A time=00:05:29.57 bitrate=N/A speed=13.9x    frame= 8077 fps=333 q=-0.0 size=N/A time=00:05:36.87 bitrate=N/A speed=13.9x    frame= 8246 fps=333 q=-0.0 size=N/A time=00:05:43.92 bitrate=N/A speed=13.9x    frame= 8427 fps=333 q=-0.0 size=N/A time=00:05:51.47 bitrate=N/A speed=13.9x    frame= 8601 fps=334 q=-0.0 size=N/A time=00:05:58.73 bitrate=N/A speed=13.9x    frame= 8772 fps=334 q=-0.0 size=N/A time=00:06:05.86 bitrate=N/A speed=13.9x    frame= 8959 fps=334 q=-0.0 size=N/A time=00:06:13.66 bitrate=N/A speed=13.9x    frame= 9135 fps=334 q=-0.0 size=N/A time=00:06:21.00 bitrate=N/A speed=13.9x    frame= 9315 fps=335 q=-0.0 size=N/A time=00:06:28.51 bitrate=N/A speed=  14x    frame= 9497 fps=335 q=-0.0 size=N/A time=00:06:36.10 bitrate=N/A speed=  14x    frame= 9670 fps=335 q=-0.0 size=N/A time=00:06:43.31 bitrate=N/A speed=  14x    frame= 9853 fps=335 q=-0.0 size=N/A time=00:06:50.95 bitrate=N/A speed=  14x    frame=10033 fps=335 q=-0.0 size=N/A time=00:06:58.45 bitrate=N/A speed=  14x    frame=10214 fps=336 q=-0.0 size=N/A time=00:07:06.00 bitrate=N/A speed=  14x    frame=10388 fps=336 q=-0.0 size=N/A time=00:07:13.26 bitrate=N/A speed=  14x    frame=10566 fps=336 q=-0.0 size=N/A time=00:07:20.69 bitrate=N/A speed=  14x    frame=10743 fps=336 q=-0.0 size=N/A time=00:07:28.07 bitrate=N/A speed=  14x    frame=10920 fps=336 q=-0.0 size=N/A time=00:07:35.45 bitrate=N/A speed=  14x    frame=11092 fps=336 q=-0.0 size=N/A time=00:07:42.62 bitrate=N/A speed=  14x    frame=11267 fps=336 q=-0.0 size=N/A time=00:07:49.92 bitrate=N/A speed=  14x    frame=11447 fps=336 q=-0.0 size=N/A time=00:07:57.43 bitrate=N/A speed=  14x    frame=11623 fps=336 q=-0.0 size=N/A time=00:08:04.77 bitrate=N/A speed=  14x    frame=11798 fps=336 q=-0.0 size=N/A time=00:08:12.07 bitrate=N/A speed=  14x    frame=11969 fps=336 q=-0.0 size=N/A time=00:08:19.20 bitrate=N/A speed=  14x    frame=12146 fps=336 q=-0.0 size=N/A time=00:08:26.58 bitrate=N/A speed=  14x    frame=12323 fps=336 q=-0.0 size=N/A time=00:08:33.97 bitrate=N/A speed=  14x    frame=12491 fps=336 q=-0.0 size=N/A time=00:08:40.97 bitrate=N/A speed=  14x    frame=12643 fps=336 q=-0.0 size=N/A time=00:08:47.31 bitrate=N/A speed=  14x    frame=12815 fps=336 q=-0.0 size=N/A time=00:08:54.49 bitrate=N/A speed=  14x    frame=12979 fps=336 q=-0.0 size=N/A time=00:09:01.33 bitrate=N/A speed=  14x    frame=13141 fps=335 q=-0.0 size=N/A time=00:09:08.08 bitrate=N/A speed=  14x    frame=13301 fps=335 q=-0.0 size=N/A time=00:09:14.76 bitrate=N/A speed=  14x    frame=13461 fps=335 q=-0.0 size=N/A time=00:09:21.43 bitrate=N/A speed=  14x    frame=13625 fps=334 q=-0.0 size=N/A time=00:09:28.27 bitrate=N/A speed=13.9x    frame=13797 fps=334 q=-0.0 size=N/A time=00:09:35.44 bitrate=N/A speed=13.9x    frame=13945 fps=334 q=-0.0 size=N/A time=00:09:41.62 bitrate=N/A speed=13.9x    frame=14084 fps=333 q=-0.0 size=N/A time=00:09:47.42 bitrate=N/A speed=13.9x    frame=14210 fps=332 q=-0.0 size=N/A time=00:09:52.67 bitrate=N/A speed=13.8x    frame=14361 fps=331 q=-0.0 size=N/A time=00:09:58.97 bitrate=N/A speed=13.8x    frame=14519 fps=331 q=-0.0 size=N/A time=00:10:05.56 bitrate=N/A speed=13.8x    frame=14685 fps=331 q=-0.0 size=N/A time=00:10:12.48 bitrate=N/A speed=13.8x    frame=14850 fps=331 q=-0.0 size=N/A time=00:10:19.36 bitrate=N/A speed=13.8x    frame=15015 fps=331 q=-0.0 size=N/A time=00:10:26.25 bitrate=N/A speed=13.8x    frame=15173 fps=331 q=-0.0 size=N/A time=00:10:32.84 bitrate=N/A speed=13.8x    frame=15347 fps=331 q=-0.0 size=N/A time=00:10:40.09 bitrate=N/A speed=13.8x    frame=15527 fps=331 q=-0.0 size=N/A time=00:10:47.60 bitrate=N/A speed=13.8x    frame=15703 fps=331 q=-0.0 size=N/A time=00:10:54.94 bitrate=N/A speed=13.8x    frame=15891 fps=331 q=-0.0 size=N/A time=00:11:02.78 bitrate=N/A speed=13.8x    frame=16080 fps=332 q=-0.0 size=N/A time=00:11:10.67 bitrate=N/A speed=13.8x    frame=16250 fps=332 q=-0.0 size=N/A time=00:11:17.76 bitrate=N/A speed=13.8x    frame=16430 fps=332 q=-0.0 size=N/A time=00:11:25.26 bitrate=N/A speed=13.8x    frame=16607 fps=332 q=-0.0 size=N/A time=00:11:32.65 bitrate=N/A speed=13.8x    frame=16800 fps=332 q=-0.0 size=N/A time=00:11:40.70 bitrate=N/A speed=13.9x    frame=16986 fps=333 q=-0.0 size=N/A time=00:11:48.45 bitrate=N/A speed=13.9x    frame=17172 fps=333 q=-0.0 size=N/A time=00:11:56.21 bitrate=N/A speed=13.9x    frame=17367 fps=333 q=-0.0 size=N/A time=00:12:04.34 bitrate=N/A speed=13.9x    frame=17555 fps=334 q=-0.0 size=N/A time=00:12:12.18 bitrate=N/A speed=13.9x    frame=17730 fps=334 q=-0.0 size=N/A time=00:12:19.48 bitrate=N/A speed=13.9x    frame=17914 fps=334 q=-0.0 size=N/A time=00:12:27.16 bitrate=N/A speed=13.9x    frame=18096 fps=334 q=-0.0 size=N/A time=00:12:34.75 bitrate=N/A speed=13.9x    frame=18277 fps=334 q=-0.0 size=N/A time=00:12:42.30 bitrate=N/A speed=13.9x    frame=18446 fps=334 q=-0.0 size=N/A time=00:12:49.35 bitrate=N/A speed=13.9x    frame=18620 fps=334 q=-0.0 size=N/A time=00:12:56.60 bitrate=N/A speed=13.9x    frame=18803 fps=334 q=-0.0 size=N/A time=00:13:04.24 bitrate=N/A speed=13.9x    frame=18979 fps=334 q=-0.0 size=N/A time=00:13:11.58 bitrate=N/A speed=  14x    frame=19153 fps=335 q=-0.0 size=N/A time=00:13:18.83 bitrate=N/A speed=  14x    frame=19340 fps=335 q=-0.0 size=N/A time=00:13:26.63 bitrate=N/A speed=  14x    frame=19522 fps=335 q=-0.0 size=N/A time=00:13:34.23 bitrate=N/A speed=  14x    frame=19709 fps=335 q=-0.0 size=N/A time=00:13:42.02 bitrate=N/A speed=  14x    frame=19906 fps=336 q=-0.0 size=N/A time=00:13:50.24 bitrate=N/A speed=  14x    frame=20097 fps=336 q=-0.0 size=N/A time=00:13:58.21 bitrate=N/A speed=  14x    frame=20287 fps=336 q=-0.0 size=N/A time=00:14:06.13 bitrate=N/A speed=  14x    frame=20464 fps=336 q=-0.0 size=N/A time=00:14:13.51 bitrate=N/A speed=  14x    frame=20648 fps=336 q=-0.0 size=N/A time=00:14:21.19 bitrate=N/A speed=  14x    frame=20841 fps=337 q=-0.0 size=N/A time=00:14:29.24 bitrate=N/A speed=  14x    frame=21027 fps=337 q=-0.0 size=N/A time=00:14:37.00 bitrate=N/A speed=14.1x    frame=21222 fps=337 q=-0.0 size=N/A time=00:14:45.13 bitrate=N/A speed=14.1x    frame=21418 fps=337 q=-0.0 size=N/A time=00:14:53.30 bitrate=N/A speed=14.1x    frame=21606 fps=338 q=-0.0 size=N/A time=00:15:01.15 bitrate=N/A speed=14.1x    frame=21791 fps=338 q=-0.0 size=N/A time=00:15:08.86 bitrate=N/A speed=14.1x    frame=21979 fps=338 q=-0.0 size=N/A time=00:15:16.70 bitrate=N/A speed=14.1x    frame=22168 fps=338 q=-0.0 size=N/A time=00:15:24.59 bitrate=N/A speed=14.1x    frame=22354 fps=339 q=-0.0 size=N/A time=00:15:32.34 bitrate=N/A speed=14.1x    frame=22542 fps=339 q=-0.0 size=N/A time=00:15:40.18 bitrate=N/A speed=14.1x    frame=22722 fps=339 q=-0.0 size=N/A time=00:15:47.69 bitrate=N/A speed=14.1x    frame=22902 fps=339 q=-0.0 size=N/A time=00:15:55.20 bitrate=N/A speed=14.1x    frame=23091 fps=339 q=-0.0 size=N/A time=00:16:03.08 bitrate=N/A speed=14.1x    frame=23274 fps=339 q=-0.0 size=N/A time=00:16:10.71 bitrate=N/A speed=14.1x    frame=23460 fps=339 q=-0.0 size=N/A time=00:16:18.47 bitrate=N/A speed=14.2x    frame=23645 fps=340 q=-0.0 size=N/A time=00:16:26.19 bitrate=N/A speed=14.2x    frame=23830 fps=340 q=-0.0 size=N/A time=00:16:33.90 bitrate=N/A speed=14.2x    frame=24012 fps=340 q=-0.0 size=N/A time=00:16:41.50 bitrate=N/A speed=14.2x    frame=24196 fps=340 q=-0.0 size=N/A time=00:16:49.17 bitrate=N/A speed=14.2x    frame=24366 fps=340 q=-0.0 size=N/A time=00:16:56.26 bitrate=N/A speed=14.2x    frame=24559 fps=340 q=-0.0 size=N/A time=00:17:04.31 bitrate=N/A speed=14.2x    frame=24745 fps=340 q=-0.0 size=N/A time=00:17:12.07 bitrate=N/A speed=14.2x    frame=24927 fps=340 q=-0.0 size=N/A time=00:17:19.66 bitrate=N/A speed=14.2x    frame=25120 fps=340 q=-0.0 size=N/A time=00:17:27.71 bitrate=N/A speed=14.2x    frame=25304 fps=341 q=-0.0 size=N/A time=00:17:35.38 bitrate=N/A speed=14.2x    frame=25490 fps=341 q=-0.0 size=N/A time=00:17:43.14 bitrate=N/A speed=14.2x    frame=25677 fps=341 q=-0.0 size=N/A time=00:17:50.94 bitrate=N/A speed=14.2x    frame=25862 fps=341 q=-0.0 size=N/A time=00:17:58.66 bitrate=N/A speed=14.2x    frame=26045 fps=341 q=-0.0 size=N/A time=00:18:06.29 bitrate=N/A speed=14.2x    frame=26222 fps=341 q=-0.0 size=N/A time=00:18:13.67 bitrate=N/A speed=14.2x    frame=26413 fps=341 q=-0.0 size=N/A time=00:18:21.64 bitrate=N/A speed=14.2x    frame=26597 fps=341 q=-0.0 size=N/A time=00:18:29.31 bitrate=N/A speed=14.2x    frame=26781 fps=342 q=-0.0 size=N/A time=00:18:36.99 bitrate=N/A speed=14.2x    frame=26956 fps=342 q=-0.0 size=N/A time=00:18:44.28 bitrate=N/A speed=14.2x    frame=27124 fps=341 q=-0.0 size=N/A time=00:18:51.29 bitrate=N/A speed=14.2x    frame=27303 fps=341 q=-0.0 size=N/A time=00:18:58.76 bitrate=N/A speed=14.2x    frame=27482 fps=341 q=-0.0 size=N/A time=00:19:06.22 bitrate=N/A speed=14.2x    frame=27659 fps=342 q=-0.0 size=N/A time=00:19:13.61 bitrate=N/A speed=14.2x    frame=27844 fps=342 q=-0.0 size=N/A time=00:19:21.32 bitrate=N/A speed=14.2x    frame=28033 fps=342 q=-0.0 size=N/A time=00:19:29.20 bitrate=N/A speed=14.3x    frame=28216 fps=342 q=-0.0 size=N/A time=00:19:36.84 bitrate=N/A speed=14.3x    frame=28399 fps=342 q=-0.0 size=N/A time=00:19:44.47 bitrate=N/A speed=14.3x    frame=28582 fps=342 q=-0.0 size=N/A time=00:19:52.10 bitrate=N/A speed=14.3x    frame=28754 fps=342 q=-0.0 size=N/A time=00:19:59.28 bitrate=N/A speed=14.3x    frame=28927 fps=342 q=-0.0 size=N/A time=00:20:06.49 bitrate=N/A speed=14.3x    frame=29095 fps=342 q=-0.0 size=N/A time=00:20:13.50 bitrate=N/A speed=14.3x    frame=29264 fps=342 q=-0.0 size=N/A time=00:20:20.55 bitrate=N/A speed=14.3x    frame=29446 fps=342 q=-0.0 size=N/A time=00:20:28.14 bitrate=N/A speed=14.3x    frame=29601 fps=342 q=-0.0 size=N/A time=00:20:34.60 bitrate=N/A speed=14.2x    frame=29762 fps=341 q=-0.0 size=N/A time=00:20:41.32 bitrate=N/A speed=14.2x    frame=29928 fps=341 q=-0.0 size=N/A time=00:20:48.24 bitrate=N/A speed=14.2x    frame=30089 fps=341 q=-0.0 size=N/A time=00:20:54.96 bitrate=N/A speed=14.2x    frame=30274 fps=341 q=-0.0 size=N/A time=00:21:02.67 bitrate=N/A speed=14.2x    frame=30460 fps=341 q=-0.0 size=N/A time=00:21:10.43 bitrate=N/A speed=14.2x    frame=30643 fps=341 q=-0.0 size=N/A time=00:21:18.06 bitrate=N/A speed=14.2x    frame=30835 fps=342 q=-0.0 size=N/A time=00:21:26.07 bitrate=N/A speed=14.2x    frame=31018 fps=342 q=-0.0 size=N/A time=00:21:33.70 bitrate=N/A speed=14.2x    frame=31197 fps=342 q=-0.0 size=N/A time=00:21:41.21 bitrate=N/A speed=14.3x    frame=31378 fps=342 q=-0.0 size=N/A time=00:21:48.72 bitrate=N/A speed=14.3x    frame=31556 fps=342 q=-0.0 size=N/A time=00:21:56.14 bitrate=N/A speed=14.3x    frame=31739 fps=342 q=-0.0 size=N/A time=00:22:03.78 bitrate=N/A speed=14.3x    frame=31909 fps=342 q=-0.0 size=N/A time=00:22:10.87 bitrate=N/A speed=14.3x    frame=32062 fps=342 q=-0.0 size=N/A time=00:22:17.25 bitrate=N/A speed=14.2x    frame=32248 fps=342 q=-0.0 size=N/A time=00:22:25.01 bitrate=N/A speed=14.2x    frame=32422 fps=342 q=-0.0 size=N/A time=00:22:32.26 bitrate=N/A speed=14.2x    frame=32602 fps=342 q=-0.0 size=N/A time=00:22:39.77 bitrate=N/A speed=14.2x    frame=32751 fps=341 q=-0.0 size=N/A time=00:22:45.98 bitrate=N/A speed=14.2x    frame=32898 fps=341 q=-0.0 size=N/A time=00:22:52.12 bitrate=N/A speed=14.2x    frame=33076 fps=341 q=-0.0 size=N/A time=00:22:59.54 bitrate=N/A speed=14.2x    frame=33248 fps=341 q=-0.0 size=N/A time=00:23:06.71 bitrate=N/A speed=14.2x    frame=33416 fps=341 q=-0.0 size=N/A time=00:23:13.72 bitrate=N/A speed=14.2x    frame=33567 fps=341 q=-0.0 size=N/A time=00:23:20.02 bitrate=N/A speed=14.2x    frame=33719 fps=340 q=-0.0 size=N/A time=00:23:26.36 bitrate=N/A speed=14.2x    frame=33840 fps=340 q=-0.0 size=N/A time=00:23:31.41 bitrate=N/A speed=14.2x    frame=33982 fps=340 q=-0.0 size=N/A time=00:23:37.33 bitrate=N/A speed=14.2x    frame=34142 fps=339 q=-0.0 size=N/A time=00:23:44.00 bitrate=N/A speed=14.2x    frame=34295 fps=339 q=-0.0 size=N/A time=00:23:50.38 bitrate=N/A speed=14.1x    frame=34423 fps=339 q=-0.0 size=N/A time=00:23:55.72 bitrate=N/A speed=14.1x    frame=34574 fps=339 q=-0.0 size=N/A time=00:24:02.02 bitrate=N/A speed=14.1x    [Parsed_ssim_16 @ 000002201fc69e00] SSIM Y:0.994228 (22.386785) U:0.994023 (22.235349) V:0.993629 (21.957964) All:0.994094 (22.287135)
[out#0/null @ 000002201275fe80] video:14903KiB audio:271276KiB subtitle:0KiB other streams:0KiB global headers:0KiB muxing overhead: unknown
frame=34683 fps=339 q=-0.0 Lsize=N/A time=00:24:06.57 bitrate=N/A speed=14.1x    
